<svg xmlns="http://www.w3.org/2000/svg" viewBox="0 0 32 32">
  <!-- 6x6 grid, cell size ~5px with 0.4px gap -->
  <!-- Row 0 -->
  <rect x="0.2" y="0.2" width="4.6" height="4.6" fill="#FF972D"/>
  <rect x="5.4" y="0.2" width="4.6" height="4.6" fill="#2DDEA0"/>
  <rect x="10.6" y="0.2" width="4.6" height="4.6" fill="#EC49D3"/>
  <rect x="15.8" y="0.2" width="4.6" height="4.6" fill="#48D7FF"/>
  <rect x="21.0" y="0.2" width="4.6" height="4.6" fill="#FF972D"/>
  <rect x="26.2" y="0.2" width="4.6" height="4.6" fill="#2DDEA0"/>
  <!-- Row 1 -->
  <rect x="0.2" y="5.4" width="4.6" height="4.6" fill="#48D7FF"/>
  <rect x="5.4" y="5.4" width="4.6" height="4.6" fill="#FF972D"/>
  <rect x="10.6" y="5.4" width="4.6" height="4.6" fill="#2DDEA0"/>
  <rect x="15.8" y="5.4" width="4.6" height="4.6" fill="#EC49D3"/>
  <rect x="21.0" y="5.4" width="4.6" height="4.6" fill="#48D7FF"/>
  <rect x="26.2" y="5.4" width="4.6" height="4.6" fill="#FF972D"/>
  <!-- Row 2 -->
  <rect x="0.2" y="10.6" width="4.6" height="4.6" fill="#2DDEA0"/>
  <rect x="5.4" y="10.6" width="4.6" height="4.6" fill="#EC49D3"/>
  <rect x="10.6" y="10.6" width="4.6" height="4.6" fill="#48D7FF"/>
  <rect x="15.8" y="10.6" width="4.6" height="4.6" fill="#FF972D"/>
  <rect x="21.0" y="10.6" width="4.6" height="4.6" fill="#2DDEA0"/>
  <rect x="26.2" y="10.6" width="4.6" height="4.6" fill="#EC49D3"/>
  <!-- Row 3 -->
  <rect x="0.2" y="15.8" width="4.6" height="4.6" fill="#EC49D3"/>
  <rect x="5.4" y="15.8" width="4.6" height="4.6" fill="#48D7FF"/>
  <rect x="10.6" y="15.8" width="4.6" height="4.6" fill="#FF972D"/>
  <rect x="15.8" y="15.8" width="4.6" height="4.6" fill="#2DDEA0"/>
  <rect x="21.0" y="15.8" width="4.6" height="4.6" fill="#EC49D3"/>
  <rect x="26.2" y="15.8" width="4.6" height="4.6" fill="#48D7FF"/>
  <!-- Row 4 -->
  <rect x="0.2" y="21.0" width="4.6" height="4.6" fill="#FF972D"/>
  <rect x="5.4" y="21.0" width="4.6" height="4.6" fill="#2DDEA0"/>
  <rect x="10.6" y="21.0" width="4.6" height="4.6" fill="#EC49D3"/>
  <rect x="15.8" y="21.0" width="4.6" height="4.6" fill="#48D7FF"/>
  <rect x="21.0" y="21.0" width="4.6" height="4.6" fill="#FF972D"/>
  <rect x="26.2" y="21.0" width="4.6" height="4.6" fill="#2DDEA0"/>
  <!-- Row 5 -->
  <rect x="0.2" y="26.2" width="4.6" height="4.6" fill="#48D7FF"/>
  <rect x="5.4" y="26.2" width="4.6" height="4.6" fill="#FF972D"/>
  <rect x="10.6" y="26.2" width="4.6" height="4.6" fill="#2DDEA0"/>
  <rect x="15.8" y="26.2" width="4.6" height="4.6" fill="#EC49D3"/>
  <rect x="21.0" y="26.2" width="4.6" height="4.6" fill="#48D7FF"/>
  <rect x="26.2" y="26.2" width="4.6" height="4.6" fill="#FF972D"/>
</svg>
